<svg id="ezaxfy70fty1" xmlns="http://www.w3.org/2000/svg" xmlns:xlink="http://www.w3.org/1999/xlink" viewBox="0 0 215.130000 542.550000" shape-rendering="geometricPrecision" text-rendering="geometricPrecision"><style><![CDATA[#ezaxfy70fty10_tr {animation: ezaxfy70fty10_tr__tr 2000ms linear infinite normal forwards}@keyframes ezaxfy70fty10_tr__tr { 0% {transform: translate(80.979157px,32.166107px) rotate(0deg)} 100% {transform: translate(80.979157px,32.166107px) rotate(90.113750deg)} }#ezaxfy70fty11_tr {animation: ezaxfy70fty11_tr__tr 2000ms linear infinite normal forwards}@keyframes ezaxfy70fty11_tr__tr { 0% {transform: translate(80.912690px,32.228607px) rotate(-45deg)} 100% {transform: translate(80.912690px,32.228607px) rotate(-225deg)} }#ezaxfy70fty16_tr {animation: ezaxfy70fty16_tr__tr 2000ms linear infinite normal forwards}@keyframes ezaxfy70fty16_tr__tr { 0% {transform: translate(118.960000px,135.060000px) rotate(0deg)} 100% {transform: translate(118.960000px,135.060000px) rotate(90.037890deg)} }#ezaxfy70fty17_tr {animation: ezaxfy70fty17_tr__tr 2000ms linear infinite normal forwards}@keyframes ezaxfy70fty17_tr__tr { 0% {transform: translate(118.985242px,135.085242px) rotate(0deg)} 100% {transform: translate(118.985242px,135.085242px) rotate(-179.679008deg)} }#ezaxfy70fty22_tr {animation: ezaxfy70fty22_tr__tr 2000ms linear infinite normal forwards}@keyframes ezaxfy70fty22_tr__tr { 0% {transform: translate(23.945000px,110.187833px) rotate(-22.499967deg)} 100% {transform: translate(23.945000px,110.187833px) rotate(135.428361deg)} }#ezaxfy70fty23_tr {animation: ezaxfy70fty23_tr__tr 2000ms linear infinite normal forwards}@keyframes ezaxfy70fty23_tr__tr { 0% {transform: translate(23.945000px,109.825600px) rotate(-22.442753deg)} 100% {transform: translate(23.945000px,109.825600px) rotate(-232.442753deg)} }]]></style><g id="ezaxfy70fty2"><g id="ezaxfy70fty3"><path id="ezaxfy70fty4" d="M88.630000,419.070000C108.910000,373.840000,96.330000,319.300000,115.510000,273.580000C118.240000,267.070000,126.150000,259.900000,131.060000,264.980000C132.258574,266.438710,133.051844,268.187353,133.360000,270.050000C141.360000,302.720000,132.500000,337.710000,140.290000,370.430000C143.290000,382.810000,148.500000,394.520000,151.920000,406.780000C164.680000,452.460000,150.550000,502.340000,124.650000,542.070000" fill="none" stroke="rgb(242,232,218)" stroke-width="2" stroke-miterlimit="10"/><path id="ezaxfy70fty5" d="M90,323.320000C85.800000,307.510000,92.400000,290.650000,102,277.400000C111.600000,264.150000,124.130000,253.290000,134.200000,240.400000C138.050000,235.480000,141.600000,230.120000,142.970000,224.030000C144.340000,217.940000,143.170000,210.970000,138.670000,206.650000C121.130000,224.910000,96,240.420000,80.500000,259.790000C66.330000,277.550000,70.690000,311.310000,71.500000,332.730000" fill="none" stroke="rgb(242,232,218)" stroke-width="2" stroke-miterlimit="10"/><path id="ezaxfy70fty6" d="M132.290000,259.860000C148.155192,264.403597,164.736389,265.906661,181.160000,264.290000C180.720000,270.290000,176.100000,275.240000,170.850000,278.160000C165.600000,281.080000,159.660000,282.450000,154.050000,284.570000C150.050000,286.080000,145.950000,288.170000,143.640000,291.790000C141.880000,294.580000,141.350000,297.950000,141,301.230000C139.971083,310.754218,140.058341,320.366031,141.260000,329.870000C147.340000,322.020000,154.470000,314.620000,163.530000,310.560000C172.590000,306.500000,183.910000,306.350000,191.880000,312.260000C195.410000,314.880000,198.240000,318.930000,197.990000,323.310000L166.430000,329.920000C161.920000,330.860000,157.020000,332.040000,154.210000,335.690000C152.400000,338.030000,151.750000,341.040000,151.150000,343.940000Q147.800000,360.170000,144.450000,376.420000" fill="none" stroke="rgb(242,232,218)" stroke-width="2" stroke-miterlimit="10"/><path id="ezaxfy70fty7" d="M54.050000,529.550000C60.053522,492.020560,56.055825,453.571614,42.460000,418.080000C36.690000,403.080000,29.190000,388.580000,26.060000,372.820000C19.550000,339.990000,32.660000,306.820000,45.510000,275.910000Q58.320000,245.080000,71.140000,214.270000C74.890000,205.270000,78.630000,196.270000,82.490000,187.270000C89.820000,189.630000,89.780000,199.920000,88.230000,207.470000Q82.870000,233.560000,77,259.470000" fill="none" fill-rule="evenodd" stroke="rgb(242,232,218)" stroke-width="2" stroke-miterlimit="10" stroke-dashoffset="100"/><path id="ezaxfy70fty8" style="isolation:isolate" d="M29.910000,31.870000C32.709048,36.241274,35.256518,40.768625,37.540000,45.430000C39.780000,50.120000,41.830000,54.900000,43.620000,59.770000C47.105901,69.554649,50.089787,79.510951,52.560000,89.600000C55.090000,99.660000,57.480000,109.740000,60.250000,119.700000C63.020000,129.660000,66.040000,139.560000,69.310000,149.370000C72.580000,159.180000,76.230000,168.860000,80.030000,178.470000C81.970000,183.270000,83.880000,188.070000,85.910000,192.820000C87.940000,197.570000,89.910000,202.330000,92.010000,207.070000C96.160000,216.540000,100.540000,225.900000,105.010000,235.230000C107.300000,239.870000,109.560000,244.530000,111.950000,249.120000C114.340000,253.710000,116.710000,258.320000,119.040000,262.950000L118.770000,263.110000C107.686443,245.535972,97.774901,227.249561,89.100000,208.370000C87,203.620000,84.850000,198.890000,82.860000,194.090000C80.870000,189.290000,78.990000,184.450000,77.090000,179.610000Q71.630000,165.010000,66.890000,150.170000Q62.150000,135.330000,58.250000,120.240000C55.630000,110.240000,53.380000,100.060000,51.010000,89.980000C48.761980,79.884157,45.994975,69.910921,42.720000,60.100000C41,55.210000,39.100000,50.410000,37,45.700000C34.808361,40.997503,32.351060,36.423451,29.640000,32Z" paint-order="stroke markers fill" fill="rgb(242,232,218)" stroke="none" stroke-width="1" stroke-dashoffset="521" stroke-dasharray="498.120000"/><path id="ezaxfy70fty9" d="M144.110000,333.410000C152.898404,357.961388,163.691462,381.748259,176.380000,404.530000C182.240000,415.040000,188.490000,425.330000,193.930000,436.060000C203.190914,454.312708,210.028721,473.696578,214.270000,493.720000" transform="matrix(1 0 0 1 -3 -3)" fill="none" stroke="rgb(242,232,218)" stroke-width="1.760000" stroke-miterlimit="10"/><g id="ezaxfy70fty10_tr" transform="translate(80.979157,32.166107) rotate(0)"><path id="ezaxfy70fty10" d="M112.270000,32.170000C112.269997,44.827443,104.644268,56.238176,92.949541,61.080099C81.254813,65.922022,67.794859,63.241315,58.847557,54.288290C49.900255,45.335266,47.228154,31.873600,52.077554,20.181971C56.926953,8.490342,68.342559,0.871910,81,0.880000C89.295972,0.882652,97.251109,4.180757,103.115372,10.048770C108.979634,15.916784,112.272653,23.874028,112.270000,32.170000Z" transform="translate(-80.979157,-32.166107)" fill="none" stroke="rgb(242,232,218)" stroke-width="1.760000" stroke-miterlimit="10" stroke-dasharray="3.510000,3.510000"/></g><g id="ezaxfy70fty11_tr" transform="translate(80.912690,32.228607) rotate(-45)"><circle id="ezaxfy70fty11" r="24.640000" transform="scale(1,1) translate(0.091193,0.002805)" fill="none" stroke="rgb(242,232,218)" stroke-width="1.390000" stroke-miterlimit="10" stroke-dasharray="3.520000,3.520000"/></g><path id="ezaxfy70fty12" d="M101.360000,32.170000C101.359996,40.414760,96.392402,47.847309,88.774462,51.000571C81.156522,54.153832,72.389154,52.406537,66.562091,46.573750C60.735028,40.740963,58.996342,31.971884,62.157081,24.357043C65.317821,16.742203,72.755244,11.781909,81,11.790000C92.247752,11.801038,101.360005,20.922243,101.360000,32.170000Z" fill="none" stroke="rgb(242,232,218)" stroke-width="1.150000" stroke-miterlimit="10" stroke-dasharray="3.560000,3.560000"/><path id="ezaxfy70fty13" d="M97,32.170000C97,41.006556,89.836556,48.170000,81,48.170000C72.163444,48.170000,65,41.006556,65,32.170000C65,23.333444,72.163444,16.170000,81,16.170000C89.836556,16.170000,97,23.333444,97,32.170000Z" fill="none" stroke="rgb(242,232,218)" stroke-width="0.900000" stroke-miterlimit="10" stroke-dasharray="3.600000,3.600000"/><circle id="ezaxfy70fty14" r="10.190000" transform="matrix(0.70710700000000 -0.70710700000000 0.70710700000000 0.70710700000000 80.97915705000003 32.16610733000000)" fill="none" stroke="rgb(242,232,218)" stroke-width="0.570000" stroke-miterlimit="10" stroke-dasharray="3.560000,3.560000"/><path id="ezaxfy70fty15" d="M89,32.170000C89,36.588278,85.418278,40.170000,81,40.170000C76.581722,40.170000,73,36.588278,73,32.170000C73,27.751722,76.581722,24.170000,81,24.170000C85.418278,24.170000,89,27.751722,89,32.170000Z" fill="none" stroke="rgb(242,232,218)" stroke-width="0.450000" stroke-miterlimit="10" stroke-dasharray="3.600000,3.600000"/><g id="ezaxfy70fty16_tr" transform="translate(118.960000,135.060000) rotate(0)"><circle id="ezaxfy70fty16" r="38.170000" transform="translate(-0,0)" fill="none" stroke="rgb(242,232,218)" stroke-width="2.150000" stroke-miterlimit="10" stroke-dasharray="3.530000,3.530000"/></g><g id="ezaxfy70fty17_tr" transform="translate(118.985242,135.085242) rotate(0)"><path id="ezaxfy70fty17" d="M149,135.060000C149.004014,147.229452,141.672663,158.201539,130.427997,162.854825C119.183331,167.508111,106.242572,164.925062,97.646070,156.311367C89.049568,147.697673,86.492381,134.751778,91.168124,123.516432C95.843868,112.281086,106.830580,104.971671,119,105C135.575957,105.038586,148.994532,118.483999,149,135.060000Z" transform="translate(-118.985242,-135.085242)" fill="none" stroke="rgb(242,232,218)" stroke-width="1.690000" stroke-miterlimit="10" stroke-dasharray="3.500000,3.500000"/></g><circle id="ezaxfy70fty18" r="24.870000" transform="matrix(1 0 0 1 118.95999999999999 135.06000000000000)" fill="none" stroke="rgb(242,232,218)" stroke-width="1.400000" stroke-miterlimit="10" stroke-dasharray="3.550000,3.550000"/><circle id="ezaxfy70fty19" r="19.590000" transform="matrix(1 0 0 1 118.95999999999999 135.06000000000000)" fill="none" stroke="rgb(242,232,218)" stroke-width="1.100000" stroke-miterlimit="10" stroke-dasharray="3.620000,3.620000"/><circle id="ezaxfy70fty20" r="12.430000" transform="matrix(1 0 0 1 118.95999999999999 135.06000000000000)" fill="none" stroke="rgb(242,232,218)" stroke-width="0.700000" stroke-miterlimit="10" stroke-dasharray="3.550000,3.550000"/><circle id="ezaxfy70fty21" r="9.790000" transform="matrix(1 0 0 1 118.95999999999999 135.06000000000000)" fill="none" stroke="rgb(242,232,218)" stroke-width="0.550000" stroke-miterlimit="10" stroke-dasharray="3.420000,3.420000"/><g id="ezaxfy70fty22_tr" transform="translate(23.945000,110.187833) rotate(-22.499967)"><circle id="ezaxfy70fty22" r="23.670000" transform="scale(1,1) translate(0.360386,0.149277)" fill="none" stroke="rgb(242,232,218)" stroke-width="1.330000" stroke-miterlimit="10" stroke-dasharray="3.540000,3.540000"/></g><g id="ezaxfy70fty23_tr" transform="translate(23.945000,109.825600) rotate(-22.442753)"><circle id="ezaxfy70fty23" r="18.640000" transform="skewX(-0) skewY(0) scale(0.995389,0.995389) translate(-0,0)" fill="none" stroke="rgb(242,232,218)" stroke-width="1.050000" stroke-miterlimit="10" stroke-dasharray="3.440000,3.440000"/></g><circle id="ezaxfy70fty24" r="15.420000" transform="matrix(0.16022600000000 -0.98708000000000 0.98708000000000 0.16022600000000 24.33624603999999 110.19977573999998)" fill="none" stroke="rgb(242,232,218)" stroke-width="0.870000" stroke-miterlimit="10" stroke-dasharray="3.460000,3.460000"/><circle id="ezaxfy70fty25" r="12.140000" transform="matrix(0.92388000000000 -0.38268300000000 0.38268300000000 0.92388000000000 24.33507897000000 110.18783298000000)" fill="none" stroke="rgb(242,232,218)" stroke-width="0.680000" stroke-miterlimit="10" stroke-dasharray="3.470000,3.470000"/><path id="ezaxfy70fty26" d="M32.050000,110.190000C32.054046,113.309311,30.178132,116.123724,27.297425,117.320237C24.416718,118.516750,21.098871,117.859586,18.891752,115.655330C16.684634,113.451074,16.023164,110.134083,17.215937,107.251825C18.408710,104.369568,21.220687,102.490003,24.340000,102.490000C28.594213,102.489996,32.044482,105.935790,32.050000,110.190000Z" fill="none" stroke="rgb(242,232,218)" stroke-width="0.430000" stroke-miterlimit="10" stroke-dasharray="3.460000,3.460000"/><path id="ezaxfy70fty27" d="M30.410000,110.190000C30.414044,112.650946,28.934184,114.871633,26.661338,115.815266C24.388492,116.758898,21.770953,116.239355,20.030799,114.499201C18.290645,112.759047,17.771102,110.141508,18.714734,107.868662C19.658367,105.595816,21.879054,104.115956,24.340000,104.120000C27.690085,104.125505,30.404495,106.839915,30.410000,110.190000Z" fill="none" stroke="rgb(242,232,218)" stroke-width="0.340000" stroke-miterlimit="10" stroke-dasharray="3.810000,3.810000"/></g></g></svg>