<svg xmlns="http://www.w3.org/2000/svg" viewBox="0 0 350.25 279.04"><defs><style>.cls-1{fill:#d1c3b2;}</style></defs><g id="Layer_2" data-name="Layer 2"><g id="Layer_1-2" data-name="Layer 1"><path class="cls-1" d="M145.84,174c-4.34-7.64-7.24-15.4-7.35-24a22,22,0,0,1,.43-4.8c1.05-4.92,3.86-8.4,8.81-9.75,4.78-1.31,8.66.65,12.05,3.85a30.69,30.69,0,0,1,2.15,2.51c4.74-2.35,9.59-2.56,13.61-.35l19.52-20c-4.73-7.32-7.78-14.43-7.53-22.59.15-4.85,2.21-8.66,6.95-10.32C199,87,202.75,88.69,205.9,92c.27.28.57.54.93-.06,3.32,0,6.64.12,10,.08a2.71,2.71,0,0,0,2-.68c5.31-6.95,10.55-14,15.2-20.17-3.15-5.86-6.46-10.91-8.65-16.41s-.54-9.82,3.09-12.52c3.37-2.49,7.35-2.23,12.52.94,3.65-2.66,7.69-3.64,12.39-1.59l7.14-13c-2.31-3.28-4.73-6.14-6.47-9.36a30.44,30.44,0,0,1-3.05-8.75,8.45,8.45,0,0,1,3.73-8.95c3.07-2.12,6.33-1.92,9.42-.19a3.52,3.52,0,0,0,4,0c7.08-3.8,15,1.08,15.19,9.12a4.28,4.28,0,0,0,1.64,3c6.45,4.49,6,12.57-1.09,16C278.62,32,273.07,32,267.54,31.1c-2.16-.34-3.33.09-4.2,2.11a48.66,48.66,0,0,1-3.26,6.13c-1.79,2.93-2.63,5.42-1.45,9.3,1.06,3.5,2.11,6,4.89,8.54,4.45,4,3.14,10.81-2.19,14.13-4.67,2.89-9.91,3.09-15.19,3a9.23,9.23,0,0,1-3-.31c-3.8-1.45-5.83.25-7.93,3.38-4.09,6.09-8.7,11.85-13.26,18,2.85,3.9,3.72,8.23,1.38,12.88.37.35.63.63.93.88,3.63,3,5.69,6.63,4.29,11.38-1.46,5-5.37,7.09-10.21,7.64-6.9.79-13.37-1-18.9-3.28-3.54,3.52-7,6.77-10.21,10.18-2.63,2.77-5.12,5.69-7.56,8.64-.51.62-1,2-.64,2.49,3,5,2.84,9.88.07,14.9.56.44,1,.8,1.49,1.18,4.47,3.67,6.35,8.71,4.87,13.32-1.78,5.57-6,8.22-11.48,8.84-9.67,1.1-18.48-1.81-26.47-5.92l-47.79,44.42s.89-.32,1.71-.67a486.16,486.16,0,0,1,108.71-32.6c4.26-.75,8.54-1.41,12.72-2.48a18.54,18.54,0,0,0,12.22-10c.78-1.52,1.65-3,2.35-4.56,4.6-10.29,13.05-15.77,23.46-18.75,2.88-.83,5.81-1.07,8.16,1.42s2.12,5.47,1,8.46c-3.61,9.43-9.1,17.23-18.79,21.53,9.54.4,18.93,1.36,28.35-1,17.12-4.21,34-3.23,50.19,4.12A50.64,50.64,0,0,1,348,199.77c1.68,1.78,2.81,3.71,2.06,6.25s-2.83,3.82-5.35,4.25c-14.21,2.43-28.09,2.07-41.18-4.91-6.22-3.32-12.4-6.7-18.69-9.87a41.57,41.57,0,0,0-21.32-4.72c1.36.74,2.23,1.22,3.11,1.68,18.5,9.78,31.91,24.26,40,43.6,2.68,6.42.47,10.21-6.34,11.56s-13,.06-19-2.94a61.26,61.26,0,0,1-20.75-17.25,174.32,174.32,0,0,1-13.86-20.08c-7-12-14.73-16.06-29.2-13.66-46.05,7.65-90.17,21.4-131.92,42.42-6.28,3.16-12.37,6.75-18.33,10.48A412,412,0,0,1,4.9,278.49a5.54,5.54,0,0,1-3.66.37c-1.87-.74-1.56-3.14.51-4.17s4.05-1.77,6.09-2.63c52.8-22.2,98.1-55,137-96.88C145.19,174.81,145.48,174.41,145.84,174Zm92.22,17.36c6.83,3.85,10.12,9.65,13.64,15.45a167.11,167.11,0,0,0,12.69,17.95,56.93,56.93,0,0,0,18.95,15.66c5.19,2.57,10.62,3.69,16.39,2.37,3.2-.73,3.71-1.54,2.42-4.62-8.61-20.4-22.88-35.28-43.41-43.82C252.48,191.72,245.92,190.17,238.06,191.33Zm107.46,14c-7.37-14.49-43-23.42-62.47-16.25,7.71,4.07,15.36,8.2,23.08,12.19a51.59,51.59,0,0,0,30.73,5.11ZM152.91,170.82c9.1-1.44,16.86-4.34,22.77-11,3.39-3.86,3.62-8.3.62-11.71-3.18-3.63-8.78-4.53-12.56-1.53C156.13,152.59,153.3,160.91,152.91,170.82Zm84.9,14.81c5.23-2,9.87-3.62,14.36-5.59,8.15-3.57,12.5-10.47,15.42-18.45,1.09-3,0-4.2-3-3.31-8.31,2.46-15.71,6.25-19.86,14.5C242.7,176.81,240.46,180.73,237.81,185.63Zm-37.11-69c6.9-1.43,12.67-3.91,17-9.08,2.81-3.35,2.81-6.77,0-9.38a7.12,7.12,0,0,0-9.83,0C202.78,103,200.83,109.19,200.7,116.65Zm-45.84,58.89a38.33,38.33,0,0,0,14.92,4.12,28.2,28.2,0,0,0,8.61-.95,6.16,6.16,0,0,0,4.68-6,7.63,7.63,0,0,0-3.79-6.81,2.88,2.88,0,0,0-2.66,0C170.56,171.18,163.26,173.77,154.86,175.54Zm-7.21-8.46c.4-.37.64-.49.66-.63a38.16,38.16,0,0,1,8.55-20.29,3.22,3.22,0,0,0-.24-3c-1.86-2.27-4.34-3.76-7.41-3.08a6.9,6.9,0,0,0-5.47,5.82C142.3,153.38,144.64,160.21,147.65,167.08ZM240.39,65.54c5.64-2.47,10.15-5.81,13-11.11,1.82-3.42,1.19-6.4-1.64-8.14a6.19,6.19,0,0,0-8.7,2.05C239.58,53.59,239.05,59.31,240.39,65.54ZM265.76,23c5-2.29,9-5.22,11.48-9.83,1.81-3.31,1.28-6-1.44-7.57A5.74,5.74,0,0,0,268,7.83C265.15,12.42,264.56,17.37,265.76,23Zm-62.09,98.15c5.28,1.88,10.06,2.79,15,2,2.37-.39,4.76-1.44,5.1-4a9.3,9.3,0,0,0-1.45-5.2c-.89-1.64-2.17-1.63-3.91-.34a78.91,78.91,0,0,1-9.48,5.71A38,38,0,0,1,203.67,121.18Zm-8.4-9.17c2-4.5,3.85-8.85,5.74-13.21.48-1.11,1.63-2.94,1.34-3.21A10,10,0,0,0,197.88,93c-2.72-.54-4.92,1.6-5.4,4.84C191.73,103,193.39,107.63,195.27,112ZM245.6,69.37c4.3.24,8.92.39,13-2.17,1.2-.74,2.54-2.55,2.45-3.77-.12-1.51-1.53-3-2.64-4.31a2.4,2.4,0,0,0-2.26.18C252.59,62.57,249.13,66,245.6,69.37Zm-8.32-22.61a4.67,4.67,0,0,0-5.52-.88c-2.17,1-2.73,3.18-2.4,5.38A22.2,22.2,0,0,0,234.27,62C235.25,57.08,236.22,52.14,237.28,46.76ZM271.1,26.34c0,.3-.09.59-.13.89,3.54-.69,7.19-1,10.56-2.23,1.33-.47,2.77-2.78,2.78-4.26s-1.84-2.75-2.68-3.88Zm-11.55-6,3.18-14.8c-1.62,0-3.55-.61-5.07,0-2.19.81-2.47,3.17-1.86,5.15C256.75,13.72,258.1,16.66,259.55,20.35Z"/></g></g></svg>